<svg width="175" height="124" viewBox="0 0 175 124" fill="none" xmlns="http://www.w3.org/2000/svg">
<path d="M11.6301 107.343C11.6301 108.463 11.2355 109.421 10.4461 110.216C9.65678 111.011 8.70452 111.408 7.58821 111.408H3.5463V94.4163H7.58821C8.71255 94.4163 9.66825 94.8138 10.453 95.609C11.2377 96.4041 11.6301 97.3568 11.6301 98.4684V107.344V107.343ZM6.11853 108.873H7.66967C8.0781 108.873 8.42229 108.727 8.70338 108.434C8.98446 108.14 9.12558 107.795 9.12558 107.397V98.5084C9.12558 98.1017 8.98217 97.7544 8.69649 97.4654C8.41082 97.1763 8.06778 97.0313 7.66967 97.0313H6.11853V108.875V108.873Z" fill="url(#paint0_linear_1_3)"/>
<path d="M16.4602 111.408H13.888V94.43H16.4602V111.408Z" fill="url(#paint1_linear_1_3)"/>
<path d="M27.1151 107.18C27.1335 108.364 26.8249 109.376 26.1893 110.216C25.7717 110.785 25.182 111.187 24.4202 111.422C24.0117 111.549 23.5356 111.612 22.9918 111.612C21.9844 111.612 21.1504 111.364 20.4872 110.867C19.9342 110.46 19.496 109.907 19.1747 109.207C18.8523 108.507 18.6642 107.705 18.6103 106.802L21.0597 106.626C21.1687 107.616 21.4315 108.333 21.8491 108.779C22.1577 109.114 22.5111 109.273 22.9103 109.255C23.4725 109.237 23.9222 108.961 24.2572 108.428C24.4293 108.166 24.5154 107.79 24.5154 107.303C24.5154 106.598 24.193 105.896 23.5494 105.201C23.0411 104.722 22.2793 104.002 21.2628 103.044C20.4104 102.221 19.8069 101.484 19.4535 100.833C19.0726 100.101 18.8822 99.3046 18.8822 98.4467C18.8822 96.901 19.4042 95.7301 20.4471 94.9338C21.0907 94.4551 21.8892 94.2152 22.8426 94.2152C23.796 94.2152 24.5441 94.4186 25.1969 94.8253C25.7051 95.1417 26.1158 95.5838 26.4279 96.1528C26.7411 96.7217 26.9293 97.3774 26.9924 98.1177L24.5291 98.5644C24.4569 97.8687 24.2572 97.3271 23.9303 96.9387C23.6939 96.6588 23.3543 96.5183 22.9092 96.5183C22.4376 96.5183 22.0797 96.7262 21.8342 97.1421C21.6345 97.4768 21.5347 97.8915 21.5347 98.3884C21.5347 99.1653 21.8709 99.9558 22.542 100.76C22.7956 101.067 23.1765 101.428 23.6847 101.844C24.2836 102.341 24.6783 102.688 24.8687 102.887C25.5032 103.52 25.9931 104.143 26.3384 104.757C26.5013 105.046 26.6333 105.313 26.7331 105.557C26.9786 106.163 27.1048 106.704 27.114 107.183L27.1151 107.18Z" fill="url(#paint2_linear_1_3)"/>
<path d="M33.2933 111.625C32.1586 111.625 31.1949 111.23 30.401 110.44C29.607 109.649 29.2101 108.694 29.2101 107.573V98.305C29.2101 97.1764 29.6093 96.2167 30.4079 95.4262C31.2064 94.6356 32.1678 94.2404 33.2933 94.2404C34.4188 94.2404 35.3894 94.6379 36.1776 95.433C36.9669 96.2282 37.3616 97.1855 37.3616 98.305V100.243H34.6941V98.2502C34.6941 97.8435 34.5484 97.4962 34.2582 97.2072C33.9679 96.9182 33.6191 96.7742 33.2107 96.7742C32.8023 96.7742 32.4558 96.9193 32.1701 97.2072C31.8844 97.4962 31.741 97.8447 31.741 98.2502V107.546C31.741 107.953 31.8844 108.298 32.1701 108.582C32.4558 108.867 32.8034 109.009 33.2107 109.009C33.618 109.009 33.9679 108.867 34.2582 108.582C34.5484 108.298 34.6941 107.952 34.6941 107.546V105.202H37.3616V107.573C37.3616 108.703 36.9623 109.661 36.1638 110.447C35.3653 111.232 34.4085 111.625 33.2921 111.625H33.2933Z" fill="url(#paint3_linear_1_3)"/>
<path d="M43.4985 94.213C44.632 94.213 45.5957 94.6105 46.3896 95.4056C47.1836 96.2007 47.5805 97.1581 47.5805 98.2788V107.547C47.5805 108.676 47.1813 109.637 46.3828 110.426C45.5842 111.216 44.6228 111.612 43.4973 111.612C42.3718 111.612 41.4012 111.214 40.613 110.419C39.8237 109.624 39.429 108.667 39.429 107.547V98.2788C39.429 97.1501 39.8283 96.1905 40.6268 95.3999C41.4253 94.6094 42.3821 94.2141 43.4985 94.2141V94.213ZM44.9005 98.2239C44.9005 97.8172 44.757 97.4722 44.4714 97.1878C44.1857 96.9033 43.8381 96.7605 43.4308 96.7605C43.0235 96.7605 42.6736 96.9033 42.3833 97.1878C42.093 97.4722 41.9485 97.8184 41.9485 98.2239V107.52C41.9485 107.926 42.093 108.271 42.3833 108.556C42.6736 108.84 43.0235 108.983 43.4308 108.983C43.8381 108.983 44.1857 108.84 44.4714 108.556C44.757 108.271 44.9005 107.925 44.9005 107.52V98.2239Z" fill="url(#paint4_linear_1_3)"/>
<path d="M53.8952 111.598C52.7617 111.598 51.7991 111.205 51.0109 110.419C50.2216 109.633 49.8269 108.68 49.8269 107.56V94.43H52.3441V107.533C52.3441 107.94 52.4887 108.285 52.7789 108.57C53.0692 108.854 53.4191 108.997 53.8264 108.997C54.2337 108.997 54.5813 108.854 54.867 108.57C55.1527 108.285 55.2961 107.939 55.2961 107.533V94.43H57.9773V107.56C57.9773 108.697 57.578 109.656 56.7795 110.433C55.981 111.21 55.0196 111.598 53.8941 111.598H53.8952Z" fill="url(#paint5_linear_1_3)"/>
<path d="M63.1505 94.4163L66.5637 105.836V94.4163H69.1359V111.408H66.3732L62.835 100.528V111.408H60.2627V94.4163H63.1505Z" fill="url(#paint6_linear_1_3)"/>
<path d="M73.9396 97.005H71.2044V94.43H79.2332V97.005H76.5118V111.408H73.9396V97.005Z" fill="url(#paint7_linear_1_3)"/>
<path d="M86.6723 111.408H84.1V94.4163H87.7909L90.1876 106.623L92.4879 94.4163H96.0342V111.408H93.4619V100.732L91.2305 111.408H89.1619L86.6711 100.758V111.408H86.6723Z" fill="url(#paint8_linear_1_3)"/>
<path d="M102.361 94.213C103.495 94.213 104.459 94.6105 105.253 95.4056C106.047 96.2007 106.444 97.1581 106.444 98.2788V107.547C106.444 108.676 106.044 109.637 105.246 110.426C104.447 111.216 103.486 111.612 102.36 111.612C101.235 111.612 100.264 111.214 99.476 110.419C98.6867 109.624 98.292 108.667 98.292 107.547V98.2788C98.292 97.1501 98.6913 96.1905 99.4898 95.3999C100.288 94.6094 101.245 94.2141 102.361 94.2141V94.213ZM103.763 98.2239C103.763 97.8172 103.62 97.4722 103.334 97.1878C103.049 96.9033 102.701 96.7605 102.294 96.7605C101.886 96.7605 101.537 96.9033 101.246 97.1878C100.956 97.4722 100.811 97.8184 100.811 98.2239V107.52C100.811 107.926 100.956 108.271 101.246 108.556C101.537 108.84 101.886 108.983 102.294 108.983C102.701 108.983 103.049 108.84 103.334 108.556C103.62 108.271 103.763 107.925 103.763 107.52V98.2239Z" fill="url(#paint9_linear_1_3)"/>
<path d="M110.948 97.005H108.213V94.43H116.241V97.005H113.52V111.408H110.948V97.005Z" fill="url(#paint10_linear_1_3)"/>
<path d="M122.079 94.213C123.212 94.213 124.176 94.6105 124.97 95.4056C125.764 96.2007 126.161 97.1581 126.161 98.2788V107.547C126.161 108.676 125.762 109.637 124.963 110.426C124.165 111.216 123.203 111.612 122.078 111.612C120.952 111.612 119.982 111.214 119.193 110.419C118.404 109.624 118.009 108.667 118.009 107.547V98.2788C118.009 97.1501 118.409 96.1905 119.207 95.3999C120.006 94.6094 120.963 94.2141 122.079 94.2141V94.213ZM123.481 98.2239C123.481 97.8172 123.337 97.4722 123.052 97.1878C122.766 96.9033 122.418 96.7605 122.011 96.7605C121.604 96.7605 121.254 96.9033 120.964 97.1878C120.673 97.4722 120.529 97.8184 120.529 98.2239V107.52C120.529 107.926 120.673 108.271 120.964 108.556C121.254 108.84 121.604 108.983 122.011 108.983C122.418 108.983 122.766 108.84 123.052 108.556C123.337 108.271 123.481 107.925 123.481 107.52V98.2239Z" fill="url(#paint11_linear_1_3)"/>
<path d="M135.112 111.625C133.977 111.625 133.014 111.228 132.221 110.433C131.427 109.638 131.03 108.685 131.03 107.573V98.305C131.03 97.1764 131.429 96.2167 132.228 95.4262C133.026 94.6356 133.988 94.2404 135.113 94.2404C136.239 94.2404 137.209 94.6379 137.999 95.433C138.788 96.2282 139.183 97.1855 139.183 98.305V100.243H136.515V98.2502C136.515 97.8435 136.37 97.4962 136.079 97.2072C135.789 96.9182 135.44 96.7742 135.032 96.7742C134.623 96.7742 134.277 96.9193 133.991 97.2072C133.706 97.4962 133.562 97.8447 133.562 98.2502V107.546C133.562 107.953 133.706 108.298 133.991 108.582C134.277 108.867 134.624 109.009 135.032 109.009C135.439 109.009 135.789 108.868 136.079 108.583C136.37 108.3 136.515 107.955 136.515 107.549V104.212H135.087V101.637H139.183V107.572C139.183 108.702 138.783 109.659 137.985 110.445C137.186 111.231 136.23 111.624 135.113 111.624L135.112 111.625Z" fill="url(#paint12_linear_1_3)"/>
<path d="M141.412 111.408V94.4163H148.733V96.9913H143.983V101.626H147.454V104.201H143.983V108.835H148.733V111.41H141.412V111.408Z" fill="url(#paint13_linear_1_3)"/>
<path d="M153.805 107.506L153.18 111.408H150.502L153.4 94.43H156.938L159.796 111.408H157.092L156.491 107.506H153.805ZM155.156 98.3188L154.204 105.012H156.11L155.158 98.3188H155.156Z" fill="url(#paint14_linear_1_3)"/>
<path d="M166.014 94.43C167.447 94.43 168.499 94.823 169.172 95.609C169.761 96.2955 170.056 97.2529 170.056 98.481V100.947C170.056 102.149 169.599 103.165 168.682 103.997L170.586 111.408H167.805L166.246 105.013H164.532V111.408H161.96V94.43H166.016H166.014ZM167.552 98.5221C167.552 97.5373 167.062 97.045 166.082 97.045H164.531V102.478H166.082C166.491 102.478 166.837 102.334 167.123 102.045C167.408 101.756 167.552 101.408 167.552 101.002V98.5221Z" fill="url(#paint15_linear_1_3)"/>
<path d="M69.0934 48.9566C69.0934 51.334 68.3947 53.5468 67.1935 55.3986C65.9269 57.3658 64.0867 58.9229 61.9206 59.8289C60.553 60.4092 59.05 60.7245 57.4771 60.7245H50.2687C48.7806 60.7245 47.4085 59.8986 46.6948 58.5768L44.7341 54.9428H56.2564C57.2316 54.9428 58.1517 54.7029 58.9605 54.2768C59.9966 53.741 60.8501 52.9048 61.4135 51.8789C61.8965 51.0175 62.1672 50.0213 62.1672 48.9555C62.1672 47.9593 61.9263 47.0237 61.5041 46.1977C61.223 45.6516 60.8605 45.1513 60.4337 44.7206C59.3632 43.6399 57.8855 42.9681 56.2564 42.9681H40.6934C39.2007 42.9681 37.8286 42.1422 37.1138 40.8158L35.1531 37.1864H57.4771C63.5348 37.1864 68.506 41.8817 69.0441 47.8782C69.0797 48.2335 69.0946 48.5888 69.0946 48.9543L69.0934 48.9566Z" fill="url(#paint16_linear_1_3)"/>
<path d="M57.4622 51.4528L57.4817 51.4425C57.9532 51.1991 58.3387 50.8199 58.598 50.348L58.6118 50.3229C58.8424 49.9117 58.9594 49.4524 58.9594 48.9566C58.9594 48.4974 58.8538 48.0587 58.6473 47.652C58.5131 47.3938 58.3467 47.1642 58.1517 46.9665C57.6377 46.4479 56.9654 46.1634 56.2552 46.1634H40.7094L42.6426 49.682C43.2598 50.8062 44.3681 51.5636 45.621 51.7486H56.2552C56.682 51.7486 57.0882 51.6492 57.4622 51.4528Z" fill="url(#paint17_linear_1_3)"/>
<path d="M105.039 48.9566C105.039 51.334 105.738 53.5468 106.939 55.3986C108.206 57.3658 110.046 58.9229 112.212 59.8289C113.58 60.4092 115.083 60.7245 116.656 60.7245H123.864C125.352 60.7245 126.724 59.8986 127.438 58.5768L129.399 54.9428H117.876C116.901 54.9428 115.981 54.7029 115.172 54.2768C114.136 53.741 113.283 52.9048 112.719 51.8789C112.236 51.0175 111.965 50.0213 111.965 48.9555C111.965 47.9593 112.206 47.0237 112.629 46.1977C112.91 45.6516 113.272 45.1513 113.699 44.7206C114.769 43.6399 116.247 42.9681 117.876 42.9681H133.439C134.932 42.9681 136.304 42.1422 137.019 40.8158L138.98 37.1864H116.656C110.598 37.1864 105.627 41.8817 105.089 47.8782C105.053 48.2335 105.038 48.5888 105.038 48.9543L105.039 48.9566Z" fill="url(#paint18_linear_1_3)"/>
<path d="M117.96 49.0606L116.456 51.88H124.368L123.217 54.0917H129.794L133.452 46.1988H122.742C120.739 46.1988 118.9 47.299 117.96 49.0606Z" fill="url(#paint19_linear_1_3)"/>
<path d="M79.3502 35.5151C78.9934 35.4797 78.6366 35.4648 78.2695 35.4648C75.882 35.4648 73.6597 36.1605 71.7999 37.3566C70.3738 38.2671 69.1634 39.4769 68.2571 40.8912C69.7107 42.8733 70.6067 45.2244 70.8316 47.7137C70.8706 48.1124 70.8901 48.5191 70.8901 48.9566C70.8901 51.6001 70.134 54.1625 68.7022 56.3697C68.163 57.2059 67.54 57.9725 66.8459 58.659C67.2142 59.4267 67.8245 60.0768 68.6081 60.496L72.2577 62.4484V48.2495C72.2577 47.2784 72.4986 46.3622 72.9265 45.5568C73.4646 44.5252 74.3044 43.6753 75.3347 43.1144C76.1998 42.6334 77.2002 42.3638 78.2706 42.3638C79.2711 42.3638 80.2107 42.6037 81.0402 43.0241C81.5886 43.304 82.0911 43.665 82.5236 44.09C83.609 45.1558 84.2836 46.6272 84.2836 48.2495V56.9329C84.2836 58.4191 85.1131 59.7855 86.4451 60.4972L90.09 62.4496V47.0339C90.09 41.002 85.3747 36.052 79.3525 35.5162L79.3502 35.5151Z" fill="url(#paint20_linear_1_3)"/>
<path d="M105.428 56.364C104 54.1625 103.244 51.6001 103.244 48.9566C103.244 48.5179 103.263 48.1112 103.302 47.7137C103.527 45.2232 104.424 42.871 105.879 40.8878C103.969 37.913 100.713 35.8498 96.9451 35.5151C96.5883 35.4797 96.2315 35.4648 95.8644 35.4648C93.4769 35.4648 91.2545 36.1605 89.3948 37.3566C89.0414 37.5817 88.703 37.8262 88.3771 38.0866C89.9684 39.8151 91.0561 41.8977 91.5609 44.1368C91.9613 43.7347 92.4213 43.3885 92.9284 43.1132C93.7935 42.6323 94.7939 42.3627 95.8644 42.3627C96.8648 42.3627 97.8044 42.6026 98.6339 43.023C99.1823 43.3029 99.6849 43.6638 100.117 44.0888C101.203 45.1547 101.877 46.6261 101.877 48.2483V56.9317C101.877 58.418 102.707 59.7843 104.039 60.496L107.684 62.4484V59.0338C106.828 58.2535 106.07 57.359 105.429 56.364H105.428Z" fill="url(#paint21_linear_1_3)"/>
<path d="M116.657 62.5124C115.115 62.5124 113.618 62.2531 112.195 61.7413C111.379 62.999 110.471 64.1929 109.479 65.3113V65.4404L109.401 65.3981C103.926 71.5225 95.9493 75.3816 87.0669 75.3816C76.5267 75.3816 67.2601 69.9483 61.9389 61.7413C60.5163 62.2531 59.0191 62.5124 57.4771 62.5124H50.2687C49.8602 62.5124 49.4587 62.4701 49.0686 62.3879C48.6613 62.9842 48.6143 63.7759 48.9917 64.4271L51.759 69.1989C52.2294 70.0111 53.2218 70.3653 54.1029 70.0363L57.4725 68.7808C58.2194 68.502 59.0661 68.7065 59.5881 69.3074C60.7561 70.6497 62.0227 71.9052 63.3753 73.0636C63.9822 73.5834 64.1899 74.4288 63.91 75.1759L62.6445 78.5426C62.3141 79.4211 62.6697 80.4081 63.4855 80.8765L68.2777 83.632C69.0934 84.1004 70.1294 83.9142 70.7283 83.1899L73.0309 80.407C73.5392 79.7924 74.3779 79.5491 75.1328 79.8107C76.7975 80.3887 78.515 80.8514 80.2807 81.185C81.0654 81.3335 81.6689 81.963 81.8008 82.7478L82.3974 86.3029C82.5523 87.2283 83.3566 87.9057 84.2985 87.9057H89.833C90.775 87.9057 91.5781 87.2283 91.7341 86.3029L92.3307 82.7478C92.4626 81.963 93.0661 81.3335 93.8509 81.185C95.6154 80.8514 97.334 80.3887 98.9988 79.8107C99.7537 79.5491 100.592 79.7924 101.101 80.407L103.403 83.1899C104.002 83.9142 105.038 84.1004 105.854 83.632L110.646 80.8765C111.462 80.4081 111.817 79.42 111.487 78.5426L110.222 75.1759C109.942 74.4299 110.149 73.5834 110.756 73.0636C112.109 71.9052 113.375 70.6497 114.543 69.3074C115.065 68.7076 115.912 68.5031 116.659 68.7808L120.029 70.0363C120.911 70.3653 121.902 70.0111 122.373 69.1989L125.14 64.4271C125.517 63.7759 125.47 62.9842 125.063 62.3879C124.673 62.4701 124.271 62.5124 123.863 62.5124H116.654H116.657Z" fill="url(#paint22_linear_1_3)"/>
<path d="M58.9571 35.4831C63.1218 24.0373 74.1346 15.86 87.0658 15.86C99.9969 15.86 111.011 24.0373 115.174 35.4831C115.663 35.4282 116.158 35.3997 116.656 35.3997H121.938C121.774 34.8445 121.597 34.295 121.408 33.7512C121.145 32.9995 121.39 32.1667 122.007 31.6606L124.697 29.4535C125.424 28.8571 125.611 27.8255 125.141 27.0133L122.374 22.2415C121.903 21.4292 120.911 21.0751 120.03 21.4041L116.788 22.6116C116.037 22.8915 115.186 22.6836 114.665 22.0781C113.478 20.6992 112.189 19.4106 110.808 18.2225C110.203 17.7027 109.998 16.8585 110.278 16.1136L111.487 12.8966C111.817 12.0181 111.462 11.0311 110.646 10.5627L105.854 7.8072C105.038 7.33881 104.002 7.52502 103.403 8.24931L101.227 10.8791C100.717 11.4949 99.8753 11.7394 99.1192 11.4732C97.4063 10.8723 95.6361 10.3925 93.8165 10.0509C93.0306 9.90351 92.4282 9.2729 92.2963 8.48807L91.7341 5.13626C91.5792 4.21091 90.775 3.53346 89.8331 3.53346H84.2985C83.3566 3.53346 82.5535 4.21091 82.3975 5.13626L81.8353 8.48807C81.7033 9.2729 81.0999 9.90351 80.3151 10.0509C78.4955 10.3925 76.7252 10.8723 75.0123 11.4732C74.2563 11.7382 73.4153 11.4949 72.9048 10.8791L70.7283 8.24931C70.1294 7.52502 69.0934 7.33881 68.2777 7.8072L63.4855 10.5627C62.6697 11.0311 62.3141 12.0192 62.6445 12.8966L63.8538 16.1136C64.1337 16.8585 63.9283 17.7027 63.3237 18.2225C61.9435 19.4095 60.654 20.6981 59.4665 22.0781C58.9456 22.6836 58.0943 22.8904 57.344 22.6116L54.1018 21.4041C53.2195 21.0751 52.2282 21.4292 51.7579 22.2415L48.9906 27.0133C48.5202 27.8255 48.7072 28.8571 49.4346 29.4535L52.125 31.6606C52.7411 32.1667 52.9866 33.0006 52.7239 33.7512C52.5334 34.295 52.3579 34.8456 52.1938 35.3997H57.476C57.9739 35.3997 58.4672 35.4282 58.9571 35.4831Z" fill="url(#paint23_linear_1_3)"/>
<path d="M109.478 64.9263L109.168 65.2759C103.742 71.3226 95.8506 75.1291 87.0658 75.1291C76.6346 75.1291 67.4632 69.7621 62.1822 61.651C61.3607 61.9652 60.5129 62.1948 59.6455 62.3364C65.2982 71.5111 75.4644 77.631 87.0658 77.631C98.6672 77.631 108.833 71.5111 114.486 62.3364C113.619 62.1936 112.771 61.9652 111.949 61.651C111.201 62.8003 110.375 63.8947 109.478 64.9263Z" fill="url(#paint24_linear_1_3)"/>
<path d="M59.2176 35.5139C63.3616 24.195 74.2666 16.1136 87.0669 16.1136C99.8673 16.1136 110.772 24.195 114.916 35.5139C115.49 35.4385 116.072 35.3997 116.657 35.3997H117.539C113.256 22.7339 101.231 13.6118 87.0669 13.6118C72.9025 13.6118 60.8777 22.7339 56.5948 35.3997H57.4771C58.0634 35.3997 58.6439 35.4385 59.2176 35.5139Z" fill="url(#paint25_linear_1_3)"/>
<path d="M46.4023 118.449C53.1793 118.175 59.9575 118.032 66.7346 117.934L69.2758 117.895L71.8171 117.87L76.8996 117.823L87.0657 117.786L97.2319 117.821L102.314 117.868L104.856 117.893L107.397 117.932C114.174 118.029 120.952 118.173 127.729 118.448C120.952 118.723 114.174 118.867 107.397 118.964L104.856 119.003L102.314 119.028L97.2319 119.075L87.0657 119.109L76.8996 119.073L71.8171 119.026L69.2758 119.001L66.7346 118.962C59.9575 118.865 53.1793 118.721 46.4023 118.447V118.449Z" fill="url(#paint26_linear_1_3)"/>
<defs>
<linearGradient id="paint0_linear_1_3" x1="7.58821" y1="91.8162" x2="7.58821" y2="116.341" gradientUnits="userSpaceOnUse">
<stop stop-color="#EF4136"/>
<stop offset="1" stop-color="#F7941D"/>
</linearGradient>
<linearGradient id="paint1_linear_1_3" x1="15.1741" y1="91.8162" x2="15.1741" y2="116.341" gradientUnits="userSpaceOnUse">
<stop stop-color="#EF4136"/>
<stop offset="1" stop-color="#F7941D"/>
</linearGradient>
<linearGradient id="paint2_linear_1_3" x1="22.8633" y1="91.8162" x2="22.8633" y2="116.341" gradientUnits="userSpaceOnUse">
<stop stop-color="#EF4136"/>
<stop offset="1" stop-color="#F7941D"/>
</linearGradient>
<linearGradient id="paint3_linear_1_3" x1="33.2864" y1="91.8162" x2="33.2864" y2="116.341" gradientUnits="userSpaceOnUse">
<stop stop-color="#EF4136"/>
<stop offset="1" stop-color="#F7941D"/>
</linearGradient>
<linearGradient id="paint4_linear_1_3" x1="43.5053" y1="91.8162" x2="43.5053" y2="116.341" gradientUnits="userSpaceOnUse">
<stop stop-color="#EF4136"/>
<stop offset="1" stop-color="#F7941D"/>
</linearGradient>
<linearGradient id="paint5_linear_1_3" x1="53.9021" y1="91.8162" x2="53.9021" y2="116.341" gradientUnits="userSpaceOnUse">
<stop stop-color="#EF4136"/>
<stop offset="1" stop-color="#F7941D"/>
</linearGradient>
<linearGradient id="paint6_linear_1_3" x1="64.6993" y1="91.8162" x2="64.6993" y2="116.341" gradientUnits="userSpaceOnUse">
<stop stop-color="#EF4136"/>
<stop offset="1" stop-color="#F7941D"/>
</linearGradient>
<linearGradient id="paint7_linear_1_3" x1="75.2177" y1="91.8162" x2="75.2177" y2="116.341" gradientUnits="userSpaceOnUse">
<stop stop-color="#EF4136"/>
<stop offset="1" stop-color="#F7941D"/>
</linearGradient>
<linearGradient id="paint8_linear_1_3" x1="90.0671" y1="91.8162" x2="90.0671" y2="116.341" gradientUnits="userSpaceOnUse">
<stop stop-color="#414042"/>
<stop offset="1" stop-color="#939598"/>
</linearGradient>
<linearGradient id="paint9_linear_1_3" x1="102.368" y1="91.8162" x2="102.368" y2="116.341" gradientUnits="userSpaceOnUse">
<stop stop-color="#414042"/>
<stop offset="1" stop-color="#939598"/>
</linearGradient>
<linearGradient id="paint10_linear_1_3" x1="112.227" y1="91.8162" x2="112.227" y2="116.341" gradientUnits="userSpaceOnUse">
<stop stop-color="#414042"/>
<stop offset="1" stop-color="#939598"/>
</linearGradient>
<linearGradient id="paint11_linear_1_3" x1="122.086" y1="91.8162" x2="122.086" y2="116.341" gradientUnits="userSpaceOnUse">
<stop stop-color="#414042"/>
<stop offset="1" stop-color="#939598"/>
</linearGradient>
<linearGradient id="paint12_linear_1_3" x1="135.105" y1="91.8162" x2="135.105" y2="116.341" gradientUnits="userSpaceOnUse">
<stop stop-color="#EF4136"/>
<stop offset="1" stop-color="#F7941D"/>
</linearGradient>
<linearGradient id="paint13_linear_1_3" x1="145.073" y1="91.8162" x2="145.073" y2="116.341" gradientUnits="userSpaceOnUse">
<stop stop-color="#EF4136"/>
<stop offset="1" stop-color="#F7941D"/>
</linearGradient>
<linearGradient id="paint14_linear_1_3" x1="155.15" y1="91.8162" x2="155.15" y2="116.341" gradientUnits="userSpaceOnUse">
<stop stop-color="#EF4136"/>
<stop offset="1" stop-color="#F7941D"/>
</linearGradient>
<linearGradient id="paint15_linear_1_3" x1="166.274" y1="91.8162" x2="166.274" y2="116.341" gradientUnits="userSpaceOnUse">
<stop stop-color="#EF4136"/>
<stop offset="1" stop-color="#F7941D"/>
</linearGradient>
<linearGradient id="paint16_linear_1_3" x1="52.1227" y1="33.3011" x2="52.1227" y2="72.7632" gradientUnits="userSpaceOnUse">
<stop stop-color="#EF4136"/>
<stop offset="1" stop-color="#F7941D"/>
</linearGradient>
<linearGradient id="paint17_linear_1_3" x1="49.8338" y1="33.3011" x2="49.8338" y2="72.7632" gradientUnits="userSpaceOnUse">
<stop stop-color="#EF4136"/>
<stop offset="1" stop-color="#F7941D"/>
</linearGradient>
<linearGradient id="paint18_linear_1_3" x1="122.01" y1="33.3011" x2="122.01" y2="72.7632" gradientUnits="userSpaceOnUse">
<stop stop-color="#EF4136"/>
<stop offset="1" stop-color="#F7941D"/>
</linearGradient>
<linearGradient id="paint19_linear_1_3" x1="124.954" y1="33.3011" x2="124.954" y2="72.7666" gradientUnits="userSpaceOnUse">
<stop stop-color="#EF4136"/>
<stop offset="1" stop-color="#F7941D"/>
</linearGradient>
<linearGradient id="paint20_linear_1_3" x1="78.4668" y1="33.3011" x2="78.4668" y2="72.7632" gradientUnits="userSpaceOnUse">
<stop stop-color="#414042"/>
<stop offset="1" stop-color="#939598"/>
</linearGradient>
<linearGradient id="paint21_linear_1_3" x1="98.0293" y1="33.3011" x2="98.0293" y2="72.7632" gradientUnits="userSpaceOnUse">
<stop stop-color="#414042"/>
<stop offset="1" stop-color="#939598"/>
</linearGradient>
<linearGradient id="paint22_linear_1_3" x1="87.1748" y1="3.16335" x2="87.0246" y2="87.7721" gradientUnits="userSpaceOnUse">
<stop stop-color="#808285"/>
<stop offset="1" stop-color="#414042"/>
</linearGradient>
<linearGradient id="paint23_linear_1_3" x1="87.1105" y1="3.16332" x2="86.9615" y2="87.7709" gradientUnits="userSpaceOnUse">
<stop stop-color="#808285"/>
<stop offset="1" stop-color="#414042"/>
</linearGradient>
<linearGradient id="paint24_linear_1_3" x1="87.1541" y1="13.3353" x2="87.0404" y2="77.5236" gradientUnits="userSpaceOnUse">
<stop stop-color="#414042"/>
<stop offset="1" stop-color="#939598"/>
</linearGradient>
<linearGradient id="paint25_linear_1_3" x1="87.1059" y1="13.3353" x2="86.9922" y2="77.5236" gradientUnits="userSpaceOnUse">
<stop stop-color="#414042"/>
<stop offset="1" stop-color="#939598"/>
</linearGradient>
<linearGradient id="paint26_linear_1_3" x1="46.4023" y1="118.449" x2="127.732" y2="118.449" gradientUnits="userSpaceOnUse">
<stop stop-color="#414042"/>
<stop offset="1" stop-color="#939598"/>
</linearGradient>
</defs>
</svg>
